<svg width="16" height="14" viewBox="0 0 16 14" fill="none" xmlns="http://www.w3.org/2000/svg">
<path d="M14.7302 0.834039H12.8413V2.25071C12.8413 2.38713 12.8144 2.52223 12.7622 2.64827C12.71 2.77431 12.6335 2.88884 12.537 2.98531C12.4405 3.08178 12.326 3.1583 12.1999 3.21051C12.0739 3.26272 11.9388 3.28959 11.8024 3.28959C11.6659 3.28959 11.5309 3.26272 11.4048 3.21051C11.2788 3.1583 11.1642 3.08178 11.0678 2.98531C10.9713 2.88884 10.8948 2.77431 10.8426 2.64827C10.7904 2.52223 10.7635 2.38713 10.7635 2.25071V0.834039H5.2621V2.25071C5.2621 2.52624 5.15265 2.79048 4.95782 2.98531C4.76299 3.18014 4.49874 3.28959 4.22321 3.28959C3.94768 3.28959 3.68344 3.18014 3.48861 2.98531C3.29378 2.79048 3.18432 2.52624 3.18432 2.25071V0.834039H1.29543C1.18306 0.83276 1.07156 0.85403 0.967548 0.89659C0.863534 0.939151 0.76911 1.00214 0.689862 1.08183C0.610615 1.16151 0.548152 1.25629 0.506168 1.36053C0.464184 1.46478 0.443532 1.57639 0.445434 1.68876V12.2571C0.443558 12.3675 0.463446 12.4772 0.503964 12.5799C0.544481 12.6826 0.604834 12.7763 0.681574 12.8556C0.758314 12.935 0.849939 12.9985 0.951215 13.0424C1.05249 13.0864 1.16143 13.11 1.27182 13.1118H14.7302C14.8405 13.11 14.9495 13.0864 15.0508 13.0424C15.152 12.9985 15.2437 12.935 15.3204 12.8556C15.3971 12.7763 15.4575 12.6826 15.498 12.5799C15.5385 12.4772 15.5584 12.3675 15.5565 12.2571V1.68876C15.5584 1.57837 15.5385 1.4687 15.498 1.366C15.4575 1.2633 15.3971 1.16959 15.3204 1.09021C15.2437 1.01084 15.152 0.947367 15.0508 0.903412C14.9495 0.859457 14.8405 0.835884 14.7302 0.834039ZM4.22321 10.2785H3.27877V9.33404H4.22321V10.2785ZM4.22321 7.91737H3.27877V6.97293H4.22321V7.91737ZM4.22321 5.55626H3.27877V4.61182H4.22321V5.55626ZM7.05654 10.2785H6.1121V9.33404H7.05654V10.2785ZM7.05654 7.91737H6.1121V6.97293H7.05654V7.91737ZM7.05654 5.55626H6.1121V4.61182H7.05654V5.55626ZM9.88988 10.2785H8.94543V9.33404H9.88988V10.2785ZM9.88988 7.91737H8.94543V6.97293H9.88988V7.91737ZM9.88988 5.55626H8.94543V4.61182H9.88988V5.55626ZM12.7232 10.2785H11.7788V9.33404H12.7232V10.2785ZM12.7232 7.91737H11.7788V6.97293H12.7232V7.91737ZM12.7232 5.55626H11.7788V4.61182H12.7232V5.55626Z" fill="#151515"/>
</svg>
